<?xml version="1.0" encoding="utf-8"?>
<!-- Generator: Adobe Illustrator 19.2.1, SVG Export Plug-In . SVG Version: 6.00 Build 0)  -->
<svg version="1.1" id="Layer_1" xmlns="http://www.w3.org/2000/svg" xmlns:xlink="http://www.w3.org/1999/xlink" x="0px" y="0px"
	 viewBox="0 0 522 91.9" style="enable-background:new 0 0 522 91.9;" xml:space="preserve">
<style type="text/css">
	.st0{fill:#414042;}
	.st1{fill:#F37057;}
	.st2{fill:#58595B;}
</style>
<g>
	<g>
		<path class="st0" d="M24.5,9.2v48.3h-5.7V9.2H0V3.9h43.3v5.3H24.5z"/>
		<path class="st0" d="M85.7,57.5l-6.5-16.1H53.6l-6.5,16.1h-6L63.4,3.9h6.4l22.2,53.6H85.7z M66.6,9.6L55.8,36.1h21.3L66.6,9.6z"/>
		<path class="st0" d="M115.6,35.2v22.3h-5.8V35.2L89.5,3.9h6.7L112.9,30l16.8-26.2h6.4L115.6,35.2z"/>
		<path class="st0" d="M144.4,57.5V3.9h5.6v48.3h30.7v5.3H144.4z"/>
		<path class="st0" d="M210.2,58.5c-15.6,0-25.8-11.9-25.8-27.8c0-15.9,10.1-27.8,25.8-27.8S236,14.7,236,30.7
			C236,46.5,225.8,58.5,210.2,58.5z M210.2,8.3c-12.2,0-19.7,9-19.7,22.4c0,13.3,7.5,22.4,19.7,22.4c12.2,0,19.7-9.1,19.7-22.4
			C229.9,17.3,222.4,8.3,210.2,8.3z"/>
		<path class="st0" d="M247.8,57.5V3.9h37.8v5.3h-32.1v17.2h27.2v5.2h-27.2v20.5h32.1v5.3H247.8z"/>
	</g>
	<g>
		<path class="st1" d="M298.4,66.2h-4.2L311.9,0h4.2L298.4,66.2z"/>
	</g>
	<g>
		<path class="st0" d="M365.5,12.8l-4.5,3.4c-3.4-4.9-8.9-7.9-15.8-7.9c-12.1,0-19.6,9-19.6,22.3s7.5,22.5,19.7,22.5
			c10.3,0,17.8-6.6,18.4-17.2h-16.6v-5.3h22.3c0.2,1,0.2,2.1,0.2,3.4c0,13.1-8.9,24.5-24.3,24.5c-15.8,0-25.9-12-25.9-27.9
			c0-15.9,10.1-27.7,25.8-27.7C354.1,2.9,361,6.7,365.5,12.8z"/>
		<path class="st0" d="M416,57.5l-12.2-22.7h-17.3v22.7h-5.6V3.9h22.9C414.1,3.9,421,9.7,421,19c0,7.4-4.5,12.6-11.4,14.8l12.8,23.7
			H416z M403.6,9.2h-17.1v20.3h17.3c7,0,11.2-4.1,11.2-10.1C415.1,13.2,410.6,9.2,403.6,9.2z"/>
		<path class="st0" d="M471.5,57.5L465,41.4h-25.5l-6.5,16.1h-6l22.2-53.6h6.4l22.2,53.6H471.5z M452.4,9.6l-10.8,26.5h21.3
			L452.4,9.6z"/>
		<path class="st0" d="M501.5,35.2v22.3h-5.8V35.2L475.3,3.9h6.7L498.7,30l16.8-26.2h6.4L501.5,35.2z"/>
	</g>
	<g>
		<path class="st2" d="M15.5,91.6V77h10.3v1.5h-8.7v4.7h7.4v1.4h-7.4v5.6h8.7v1.5H15.5z"/>
		<path class="st2" d="M32.3,91.6V77h1.5v13.2h8.4v1.5H32.3z"/>
		<path class="st2" d="M48.2,91.6V77h10.3v1.5h-8.7v4.7h7.4v1.4h-7.4v5.6h8.7v1.5H48.2z"/>
		<path class="st2" d="M76.9,77l-5.7,14.6h-1.6L64,77h1.6l4.8,12.8L75.4,77H76.9z"/>
		<path class="st2" d="M92.2,91.6l-1.8-4.4h-7l-1.8,4.4H80L86.1,77h1.8l6.1,14.6H92.2z M87,78.5L84,85.7h5.8L87,78.5z"/>
		<path class="st2" d="M103.4,78.4v13.2h-1.6V78.4h-5.1V77h11.8v1.5H103.4z"/>
		<path class="st2" d="M114.6,91.6V77h10.3v1.5h-8.7v4.7h7.4v1.4h-7.4v5.6h8.7v1.5H114.6z"/>
		<path class="st2" d="M146.7,91.6h-6.3V77h5.8c2.9,0,4.6,1.2,4.6,3.4c0,1.5-0.8,2.6-1.9,3.2c1.7,0.7,2.5,2.1,2.5,3.9
			C151.4,89.7,149.9,91.6,146.7,91.6z M146.2,78.4h-4.3v4.7h4.4c1.9,0,2.9-1,2.9-2.5C149.2,79.1,148.2,78.4,146.2,78.4z M146.8,84.5
			h-4.9v5.6h4.8c2,0,3.1-1,3.1-2.8C149.8,85.7,148.9,84.5,146.8,84.5z"/>
		<path class="st2" d="M167.8,91.6l-3.3-6.2h-4.7v6.2h-1.5V77h6.2c2.8,0,4.7,1.6,4.7,4.1c0,2-1.2,3.5-3.1,4l3.5,6.5H167.8z
			 M164.4,78.4h-4.7v5.5h4.7c1.9,0,3.1-1.1,3.1-2.7C167.6,79.5,166.3,78.4,164.4,78.4z"/>
		<path class="st2" d="M187.1,91.6l-1.8-4.4h-7l-1.8,4.4h-1.6L181,77h1.8l6.1,14.6H187.1z M181.9,78.5l-2.9,7.2h5.8L181.9,78.5z"/>
		<path class="st2" d="M204.6,91.6l-8.3-12.8v12.8h-1.5V77h2l8.1,12.5V77h1.5v14.6H204.6z"/>
		<path class="st2" d="M214,91.6V77h5.5c4.4,0,7,3.1,7,7.3c0,4.2-2.5,7.3-7,7.3H214z M219.5,90.1c3.5,0,5.3-2.4,5.3-5.9
			c0-3.5-1.9-5.9-5.3-5.9h-4v11.7H219.5z"/>
		<path class="st2" d="M242.6,79.2l-1.2,0.9c-0.9-1.2-2.4-1.9-4.2-1.9c-1.6,0-3.2,0.6-3.2,2.4c0,1.7,1.5,2.1,3.5,2.6
			c2.7,0.7,5.3,1.4,5.3,4.3c0,2.6-2.2,4.4-5.4,4.4c-2.6,0-4.6-1.1-5.7-2.8l1.3-0.9c1,1.6,2.7,2.3,4.5,2.3c2.1,0,3.6-1,3.6-2.8
			c0-1.9-1.8-2.3-4.2-2.9c-2.3-0.5-4.6-1.3-4.6-4c0-2.6,2.2-4,4.9-4C239.6,76.7,241.4,77.6,242.6,79.2z"/>
		<path class="st2" d="M247.1,91.6v-1.9h1.9v1.9H247.1z"/>
		<path class="st2" d="M271.1,91.6h-6.3V77h5.8c2.9,0,4.6,1.2,4.6,3.4c0,1.5-0.8,2.6-1.9,3.2c1.7,0.7,2.5,2.1,2.5,3.9
			C275.8,89.7,274.3,91.6,271.1,91.6z M270.6,78.4h-4.3v4.7h4.4c1.9,0,2.9-1,2.9-2.5C273.6,79.1,272.6,78.4,270.6,78.4z M271.2,84.5
			h-4.9v5.6h4.8c2,0,3.1-1,3.1-2.8C274.2,85.7,273.3,84.5,271.2,84.5z"/>
		<path class="st2" d="M294.2,86.1c0,3.4-2.5,5.7-5.9,5.7c-3.4,0-5.8-2.3-5.8-5.7V77h1.5v9.2c0,2.5,1.6,4.2,4.3,4.2
			c2.6,0,4.3-1.7,4.3-4.2V77h1.5V86.1z"/>
		<path class="st2" d="M301.7,91.6V77h1.5v14.6H301.7z"/>
		<path class="st2" d="M310.8,91.6V77h1.5v13.2h8.4v1.5H310.8z"/>
		<path class="st2" d="M326.7,91.6V77h5.5c4.4,0,7,3.1,7,7.3c0,4.2-2.5,7.3-7,7.3H326.7z M332.3,90.1c3.4,0,5.3-2.4,5.3-5.9
			c0-3.5-1.9-5.9-5.3-5.9h-4v11.7H332.3z"/>
		<path class="st2" d="M364.1,79.2l-1.2,0.9c-0.9-1.2-2.4-1.9-4.2-1.9c-1.6,0-3.2,0.6-3.2,2.4c0,1.7,1.5,2.1,3.5,2.6
			c2.7,0.7,5.3,1.4,5.3,4.3c0,2.6-2.2,4.4-5.4,4.4c-2.6,0-4.6-1.1-5.7-2.8l1.3-0.9c1,1.6,2.7,2.3,4.5,2.3c2.1,0,3.6-1,3.6-2.8
			c0-1.9-1.8-2.3-4.2-2.9c-2.3-0.5-4.6-1.3-4.6-4c0-2.6,2.2-4,4.9-4C361.1,76.7,362.9,77.6,364.1,79.2z"/>
		<path class="st2" d="M377.2,91.9c-4.3,0-7-3.3-7-7.6c0-4.4,2.8-7.6,7-7.6s7,3.2,7,7.6C384.2,88.6,381.5,91.9,377.2,91.9z
			 M377.2,78.2c-3.3,0-5.4,2.5-5.4,6.1c0,3.6,2,6.1,5.4,6.1c3.3,0,5.4-2.5,5.4-6.1C382.6,80.6,380.5,78.2,377.2,78.2z"/>
		<path class="st2" d="M391,91.6V77h1.5v13.2h8.4v1.5H391z"/>
		<path class="st2" d="M418,86.1c0,3.4-2.5,5.7-5.9,5.7c-3.4,0-5.8-2.3-5.8-5.7V77h1.5v9.2c0,2.5,1.6,4.2,4.3,4.2
			c2.6,0,4.4-1.7,4.4-4.2V77h1.5V86.1z"/>
		<path class="st2" d="M430.7,78.4v13.2h-1.6V78.4H424V77h11.8v1.5H430.7z"/>
		<path class="st2" d="M441.9,91.6V77h1.5v14.6H441.9z"/>
		<path class="st2" d="M457.2,91.9c-4.3,0-7-3.3-7-7.6c0-4.4,2.8-7.6,7-7.6s7,3.2,7,7.6C464.3,88.6,461.5,91.9,457.2,91.9z
			 M457.2,78.2c-3.3,0-5.4,2.5-5.4,6.1c0,3.6,2,6.1,5.4,6.1c3.3,0,5.4-2.5,5.4-6.1C462.6,80.6,460.5,78.2,457.2,78.2z"/>
		<path class="st2" d="M480.9,91.6l-8.3-12.8v12.8h-1.5V77h2l8.1,12.5V77h1.5v14.6H480.9z"/>
		<path class="st2" d="M499.8,79.2l-1.2,0.9c-0.9-1.2-2.4-1.9-4.2-1.9c-1.6,0-3.2,0.6-3.2,2.4c0,1.7,1.5,2.1,3.5,2.6
			c2.7,0.7,5.3,1.4,5.3,4.3c0,2.6-2.2,4.4-5.4,4.4c-2.6,0-4.6-1.1-5.7-2.8l1.3-0.9c1,1.6,2.7,2.3,4.5,2.3c2.1,0,3.6-1,3.6-2.8
			c0-1.9-1.8-2.3-4.2-2.9c-2.3-0.5-4.6-1.3-4.6-4c0-2.6,2.2-4,4.9-4C496.8,76.7,498.6,77.6,499.8,79.2z"/>
		<path class="st2" d="M504.8,91.6v-1.9h1.9v1.9H504.8z"/>
	</g>
</g>
</svg>
