<?xml version="1.0" encoding="UTF-8"?>
<svg width="23px" height="14px" viewBox="0 0 23 14" version="1.1" xmlns="http://www.w3.org/2000/svg" xmlns:xlink="http://www.w3.org/1999/xlink">
    <title>tg-sm_cow-black</title>
    <g id="Page-1" stroke="none" stroke-width="1" fill="none" fill-rule="evenodd">
        <g id="tg-sm_cow-black" fill="#000000" fill-rule="nonzero">
            <path d="M22.96,8.69866667 C23,8.596 23,8.52133333 23,8.40933333 C23,8.26933333 22.96,8.12 22.96,8.08266667 C22.69,7.69066667 22.03,7.26133333 22,7.00933333 C21.96,6.216 22.12,5.38533333 22.12,4.52666667 C22.12,4.02266667 22.04,3.51866667 21.77,2.97733333 C21.65,2.72533333 21.23,2.22133333 21,2.184 C20.46,2.044 19.38,1.96933333 19.26,1.96933333 C17.99,1.96933333 16.79,2.08133333 15.48,2.08133333 C15.33,2.08133333 14.36,2.25866667 14.21,2.25866667 C12.86,2.25866667 11.01,2.184 9.62,1.86666667 C9.26,1.74533333 8.8,1.568 8.49,1.568 C8.18,1.568 7.56,1.74533333 7.14,1.74533333 C6.48,1.74533333 5.79,1.64266667 5.48,1.49333333 C5.33,1.428 5.4,1.27866667 5.4,1.27866667 C5.55,1.10133333 5.75,0.989333333 5.75,0.774666667 C5.75,0.7 5.71,0.485333333 5.48,0.485333333 C5.33,0.485333333 4.79,0.7 4.63,0.7 C4.59,0.7 4.59,0.7 4.48,0.7 C4.32,0.485333333 4.13,0.130666667 3.55,0.130666667 C3.47,0.130666667 3.13,0.205333333 2.82,0.308 C2.59,0.308 2.36,0.308 2.32,0.308 C2.17,0.308 1.93,0.308 1.86,0.270666667 C1.75,0.270666667 1.59,0.130666667 1.47,0.130666667 C1.47,0.130666667 1.32,0.0933333333 1.28,0.130666667 C1.16,0.205333333 1.28,0.382666667 1.28,0.382666667 C1.24,0.522666667 1.63,0.812 1.82,0.849333333 C2.05,0.924 2.36,0.886666667 2.59,0.961333333 C2.55,1.13866667 2.2,1.316 2.12,1.428 C1.97,1.64266667 1.74,1.96933333 1.47,2.22133333 C0.81,2.828 0,3.29466667 0,3.48133333 C0,3.54666667 0.12,3.73333333 0.15,3.91066667 C0.23,4.088 0.27,4.27466667 0.38,4.37733333 C0.53,4.48933333 0.84,4.48933333 1.15,4.51733333 C1.54,4.55466667 1.92,4.62933333 2,4.62933333 C2.15,4.62933333 2.46,4.55466667 2.62,4.55466667 C3.31,4.55466667 3.82,4.80666667 4.16,5.17066667 C4.47,5.49733333 4.7,5.92666667 5.01,6.356 C5.16,6.608 5.36,6.82266667 5.55,7.07466667 C5.74,7.364 6.01,7.71866667 6.05,8.008 C6.09,8.22266667 6.05,8.43733333 6.17,8.624 C6.32,8.83866667 6.36,8.988 6.63,9.05333333 C6.82,9.09066667 7.02,9.016 7.17,9.05333333 C7.25,9.09066667 7.32,9.09066667 7.32,9.156 C7.4,9.296 7.32,9.48266667 7.32,9.66 C7.36,9.912 7.47,10.304 7.55,10.668 C7.63,10.9946667 7.59,11.3493333 7.59,11.424 C7.59,11.8533333 7.59,12.292 7.28,12.684 C7.2,12.796 6.89,12.936 6.62,13.1133333 C6.39,13.2533333 6.23,13.4026667 6.23,13.5426667 C6.23,13.72 6.85,13.6826667 7.08,13.6826667 C7.39,13.6826667 7.66,13.6826667 7.74,13.5426667 C7.82,13.468 7.78,13.4026667 7.9,13.2533333 C7.98,13.1786667 8.09,13.076 8.25,13.0013333 C8.21,12.6373333 8.21,12.208 8.25,11.8813333 C8.25,11.7413333 8.56,10.4813333 8.98,10.4813333 C9.13,10.4813333 9.1,10.5186667 9.1,10.5186667 C9.14,10.808 9.25,11.312 9.25,11.452 C9.25,11.9186667 9.1,12.4226667 8.83,12.7493333 C8.68,12.964 8.1,13.1786667 8.1,13.2906667 C8.1,13.4306667 8.18,13.4026667 8.18,13.468 C8.29,13.5053333 8.41,13.5426667 8.57,13.5426667 C8.72,13.5426667 9.46,13.468 9.84,13.4026667 C9.92,13.2626667 9.95,13.0106667 10.07,12.8613333 C10.15,12.7213333 10.34,12.684 10.42,12.5346667 C10.54,12.3573333 10.3,11.9933333 10.27,11.8533333 C10.23,11.0973333 10.35,10.3413333 10.46,9.58533333 C10.5,9.33333333 10.81,8.932 11.12,8.904 C11.35,8.86666667 11.66,8.82933333 11.85,8.82933333 C12.27,8.82933333 13.7,9.22133333 14.36,9.22133333 C14.51,9.22133333 14.51,9.14666667 14.63,9.14666667 C14.75,9.14666667 15.09,9.28666667 15.09,9.324 C15.32,9.53866667 15.59,9.75333333 15.78,9.90266667 C15.82,9.90266667 15.86,9.90266667 15.86,9.97733333 C15.97,10.1546667 16.09,10.3786667 16.25,10.3786667 C16.4,10.3413333 16.44,10.1266667 16.6,10.0893333 C16.6,10.0893333 16.91,10.052 16.95,10.0893333 C17.07,10.164 17.18,10.416 17.34,10.416 C17.49,10.416 17.57,10.276 17.57,10.164 C17.57,10.1266667 17.65,10.0893333 17.68,10.052 C17.72,10.0146667 17.76,9.97733333 17.83,9.97733333 C17.98,9.97733333 18.1,10.052 18.1,10.1173333 C18.25,10.5093333 17.91,11.1253333 17.64,11.5173333 C17.52,11.6946667 17.49,12.0586667 17.37,12.1986667 C17.18,12.488 16.91,12.74 16.64,12.9173333 C16.56,12.9546667 16.45,13.0293333 16.37,13.0946667 C16.29,13.1693333 16.25,13.272 16.25,13.3466667 C16.25,13.3466667 16.29,13.384 16.56,13.384 L17.52,13.4213333 C17.71,13.4213333 17.98,13.244 18.02,13.1693333 C18.06,13.0666667 18.02,12.9546667 18.06,12.8426667 C18.21,12.768 18.45,12.5906667 18.52,12.4133333 C18.75,11.7973333 18.83,10.6866667 19.56,9.716 C19.56,9.716 19.6,9.67866667 19.64,9.67866667 C19.68,9.67866667 19.72,9.716 19.72,9.716 C20.11,10.2573333 20.38,10.836 20.38,11.4426667 C20.38,11.5826667 20.3,12.3386667 20.19,12.74 C20.15,12.852 20.04,13.0293333 19.92,13.104 C19.77,13.216 19.57,13.3186667 19.46,13.4306667 C19.34,13.5053333 19.23,13.608 19.23,13.6826667 C19.23,13.7853333 19.65,13.86 19.81,13.86 L20.89,13.8226667 C21.32,13.7853333 21.28,13.356 21.24,13.0293333 C21.2,12.992 21.2,12.8893333 21.24,12.852 C21.28,12.7773333 21.43,12.74 21.43,12.712 C21.43,12.208 21.32,11.7413333 21.32,11.2373333 C21.28,10.7706667 21.36,10.304 21.4,9.828 C21.48,9.464 21.71,8.96 21.71,8.82 C21.71,8.708 21.48,8.49333333 21.33,8.24133333 C21.21,8.064 21.17,7.87733333 21.17,7.73733333 C21.17,7.63466667 21.36,7.01866667 21.48,6.552 C21.56,6.08533333 21.67,5.61866667 21.67,5.152 C21.82,5.404 21.59,6.412 21.59,6.524 C21.63,6.664 21.55,6.85066667 21.47,7.06533333 C21.24,7.68133333 21.89,8.36266667 22.05,8.75466667 C22.17,9.044 22.13,9.408 22.2,9.66 C22.28,9.83733333 22.55,10.024 22.7,10.024 C22.85,10.024 22.82,10.024 22.85,9.94933333 C22.73,9.73466667 22.7,9.44533333 22.73,9.156 C22.77,8.988 22.88,8.848 22.96,8.69866667 Z" id="Path"></path>
        </g>
    </g>
</svg>