<?xml version="1.0" encoding="UTF-8"?>
<svg width="23px" height="15px" viewBox="0 0 23 15" version="1.1" xmlns="http://www.w3.org/2000/svg" xmlns:xlink="http://www.w3.org/1999/xlink">
    <title>Path</title>
    <g id="Page-1" stroke="none" stroke-width="1" fill="none" fill-rule="evenodd">
        <g id="tg-sm_cow-white" fill="#FFFFFF" fill-rule="nonzero">
            <path d="M22.96,8.86548891 C23,8.7609246 23,8.68487782 23,8.57080766 C23,8.42821996 22.96,8.27612641 22.96,8.23810302 C22.69,7.83885745 22.03,7.4015885 22,7.14493063 C21.96,6.33693365 22.12,5.49091328 22.12,4.61637537 C22.12,4.10305964 22.04,3.58974391 21.77,3.03840479 C21.65,2.78174693 21.23,2.2684312 21,2.23040781 C20.46,2.08782011 19.38,2.01177334 19.26,2.01177334 C17.99,2.01177334 16.79,2.1258435 15.48,2.1258435 C15.33,2.1258435 14.36,2.30645459 14.21,2.30645459 C12.86,2.30645459 11.01,2.23040781 9.62,1.90720902 C9.26,1.78363301 8.8,1.60302192 8.49,1.60302192 C8.18,1.60302192 7.56,1.78363301 7.14,1.78363301 C6.48,1.78363301 5.79,1.6790687 5.48,1.52697515 C5.33,1.46043422 5.4,1.30834067 5.4,1.30834067 C5.55,1.12772958 5.75,1.01365942 5.75,0.795024938 C5.75,0.718978163 5.71,0.500343686 5.48,0.500343686 C5.33,0.500343686 4.79,0.718978163 4.63,0.718978163 C4.59,0.718978163 4.59,0.718978163 4.48,0.718978163 C4.32,0.500343686 4.13,0.139121506 3.55,0.139121506 C3.47,0.139121506 3.13,0.21516828 2.82,0.319732596 C2.59,0.319732596 2.36,0.319732596 2.32,0.319732596 C2.17,0.319732596 1.93,0.319732596 1.86,0.281709208 C1.75,0.281709208 1.59,0.139121506 1.47,0.139121506 C1.47,0.139121506 1.32,0.101098118 1.28,0.139121506 C1.16,0.21516828 1.28,0.39577937 1.28,0.39577937 C1.24,0.538367073 1.63,0.833048326 1.82,0.871071713 C2.05,0.947118488 2.36,0.9090951 2.59,0.985141875 C2.55,1.16575297 2.2,1.34636406 2.12,1.46043422 C1.97,1.6790687 1.74,2.01177334 1.47,2.2684312 C0.81,2.88631125 0,3.36160359 0,3.55172052 C0,3.61826145 0.12,3.80837839 0.15,3.98898948 C0.23,4.16960057 0.27,4.35971751 0.38,4.46428182 C0.53,4.57835198 0.84,4.57835198 1.15,4.60686953 C1.54,4.64489291 1.92,4.72093969 2,4.72093969 C2.15,4.72093969 2.46,4.64489291 2.62,4.64489291 C3.31,4.64489291 3.82,4.90155078 4.16,5.2722788 C4.47,5.60498344 4.7,6.0422524 5.01,6.47952135 C5.16,6.73617922 5.36,6.9548137 5.55,7.21147156 C5.74,7.50615281 6.01,7.86737499 6.05,8.16205625 C6.09,8.38069072 6.05,8.5993252 6.17,8.78944214 C6.32,9.00807662 6.36,9.16017017 6.63,9.22671109 C6.82,9.26473448 7.02,9.18868771 7.17,9.22671109 C7.25,9.26473448 7.32,9.26473448 7.32,9.33127541 C7.4,9.47386311 7.32,9.66398005 7.32,9.84459114 C7.36,10.101249 7.47,10.5004946 7.55,10.8712226 C7.63,11.2039272 7.59,11.5651494 7.59,11.6411962 C7.59,12.0784651 7.59,12.52524 7.28,12.9244855 C7.2,13.0385557 6.89,13.1811434 6.62,13.3617545 C6.39,13.5043422 6.23,13.6564357 6.23,13.7990234 C6.23,13.9796345 6.85,13.9416111 7.08,13.9416111 C7.39,13.9416111 7.66,13.9416111 7.74,13.7990234 C7.82,13.7229767 7.78,13.6564357 7.9,13.5043422 C7.98,13.4282954 8.09,13.3237311 8.25,13.2476843 C8.21,12.8769563 8.21,12.4396873 8.25,12.1069827 C8.25,11.964395 8.56,10.6811057 8.98,10.6811057 C9.13,10.6811057 9.1,10.719129 9.1,10.719129 C9.14,11.0138103 9.25,11.527126 9.25,11.6697137 C9.25,12.1450061 9.1,12.6583218 8.83,12.9910264 C8.68,13.2096609 8.1,13.4282954 8.1,13.5423656 C8.1,13.6849533 8.18,13.6564357 8.18,13.7229767 C8.29,13.761 8.41,13.7990234 8.57,13.7990234 C8.72,13.7990234 9.46,13.7229767 9.84,13.6564357 C9.92,13.513848 9.95,13.2571902 10.07,13.1050966 C10.15,12.9625089 10.34,12.9244855 10.42,12.772392 C10.54,12.5917809 10.3,12.2210529 10.27,12.0784651 C10.23,11.3084916 10.35,10.538518 10.46,9.76854436 C10.5,9.5118865 10.81,9.10313509 11.12,9.07461754 C11.35,9.03659416 11.66,8.99857077 11.85,8.99857077 C12.27,8.99857077 13.7,9.39781634 14.36,9.39781634 C14.51,9.39781634 14.51,9.32176956 14.63,9.32176956 C14.75,9.32176956 15.09,9.46435727 15.09,9.50238065 C15.32,9.72101513 15.59,9.93964961 15.78,10.0917432 C15.82,10.0917432 15.86,10.0917432 15.86,10.1677899 C15.97,10.348401 16.09,10.5765413 16.25,10.5765413 C16.4,10.538518 16.44,10.3198835 16.6,10.2818601 C16.6,10.2818601 16.91,10.2438367 16.95,10.2818601 C17.07,10.3579069 17.18,10.6145647 17.34,10.6145647 C17.49,10.6145647 17.57,10.471977 17.57,10.3579069 C17.57,10.3198835 17.65,10.2818601 17.68,10.2438367 C17.72,10.2058133 17.76,10.1677899 17.83,10.1677899 C17.98,10.1677899 18.1,10.2438367 18.1,10.3103776 C18.25,10.7096232 17.91,11.3370091 17.64,11.7362547 C17.52,11.9168658 17.49,12.2875938 17.37,12.4301815 C17.18,12.7248627 16.91,12.9815206 16.64,13.1621317 C16.56,13.2001551 16.45,13.2762019 16.37,13.3427428 C16.29,13.4187896 16.25,13.5233539 16.25,13.5994006 C16.25,13.5994006 16.29,13.637424 16.56,13.637424 L17.52,13.6754474 C17.71,13.6754474 17.98,13.4948363 18.02,13.4187896 C18.06,13.3142252 18.02,13.2001551 18.06,13.0860849 C18.21,13.0100381 18.45,12.8294271 18.52,12.648816 C18.75,12.0214301 18.83,10.8902343 19.56,9.90162622 C19.56,9.90162622 19.6,9.86360283 19.64,9.86360283 C19.68,9.86360283 19.72,9.90162622 19.72,9.90162622 C20.11,10.4529653 20.38,11.0423278 20.38,11.6602079 C20.38,11.8027956 20.3,12.5727692 20.19,12.9815206 C20.15,13.0955908 20.04,13.2762019 19.92,13.3522486 C19.77,13.4663188 19.57,13.5708831 19.46,13.6849533 C19.34,13.761 19.23,13.8655644 19.23,13.9416111 C19.23,14.0461754 19.65,14.1222222 19.81,14.1222222 L20.89,14.0841988 C21.32,14.0461754 21.28,13.6089065 21.24,13.2762019 C21.2,13.2381785 21.2,13.1336141 21.24,13.0955908 C21.28,13.019544 21.43,12.9815206 21.43,12.9530031 C21.43,12.4396873 21.32,11.964395 21.32,11.4510793 C21.28,10.9757869 21.36,10.5004946 21.4,10.0156964 C21.48,9.64496836 21.71,9.13165263 21.71,8.98906492 C21.71,8.87499476 21.48,8.65636028 21.33,8.39970242 C21.21,8.21909133 21.17,8.02897439 21.17,7.88638669 C21.17,7.78182237 21.36,7.15443648 21.48,6.67914414 C21.56,6.2038518 21.67,5.72855945 21.67,5.25326711 C21.82,5.50992498 21.59,6.53655644 21.59,6.6506266 C21.63,6.7932143 21.55,6.98333124 21.47,7.20196572 C21.24,7.82935161 21.89,8.52327843 22.05,8.922524 C22.17,9.21720525 22.13,9.58793327 22.2,9.84459114 C22.28,10.0252022 22.55,10.2153192 22.7,10.2153192 C22.85,10.2153192 22.82,10.2153192 22.85,10.1392724 C22.73,9.92063791 22.7,9.62595666 22.73,9.33127541 C22.77,9.16017017 22.88,9.01758246 22.96,8.86548891 Z" id="Path"></path>
        </g>
    </g>
</svg>